<svg width="180" height="180" viewBox="0 0 180 180" fill="none" xmlns="http://www.w3.org/2000/svg">
<rect width="180" height="180" rx="36" fill="#1A4FFF"/>
<path d="M100.819 30.2271C100.615 30.4273 100.548 35.8318 100.548 53.1574C100.548 68.3479 100.48 75.9543 100.322 76.2434C99.9828 76.8439 99.1018 76.7772 97.9948 76.0432C97.4752 75.7096 96.8879 75.3315 96.6845 75.2203C96.4812 75.0869 95.6679 74.5086 94.8773 73.9304C94.0866 73.3299 92.7085 72.3957 91.8275 71.8175C90.9464 71.2392 89.365 70.1939 88.3259 69.5044C85.5697 67.6807 82.1133 65.3899 79.8316 63.922C78.7472 63.2103 76.3752 61.6312 74.5679 60.4079C72.7606 59.2069 69.869 57.2497 68.1295 56.071C66.3899 54.8922 64.5601 53.669 64.0631 53.3131C63.5661 52.9795 60.9229 51.2225 58.1894 49.4432C55.4559 47.6417 52.3157 45.5511 51.1862 44.7949C48.5204 42.9711 44.8155 40.4579 40.3425 37.4776C36.4794 34.8755 35.3047 34.097 33.0004 32.5402C31.4416 31.4726 30.4024 31.2502 30.1991 31.8952C30.1539 32.1176 30.0635 49.3542 30.0184 70.2161C29.9732 101.687 29.9958 108.315 30.2669 109.138C30.425 109.694 30.6509 110.694 30.7413 111.362C30.9898 113.052 32.5711 116.255 34.4914 119.035C36.6149 122.06 40.1617 124.795 54.01 134.025C56.3143 135.56 58.8445 137.228 59.6352 137.762C60.4485 138.273 61.1488 138.785 61.2166 138.896C61.2844 138.985 61.9847 139.452 62.7754 139.941C63.5435 140.43 65.0119 141.409 66.0285 142.099C67.0225 142.81 67.9261 143.389 68.0165 143.389C68.1069 143.389 68.8524 143.856 69.6882 144.434C70.5015 145.034 71.5633 145.746 72.0377 146.035C72.5347 146.324 73.2124 146.814 73.5739 147.147C74.4098 147.881 75.9685 148.926 77.2336 149.616C78.5439 150.35 78.928 150.083 79.1539 148.37C79.2443 147.659 79.3572 137.317 79.425 125.396C79.5153 103.11 79.5153 103.377 80.3286 103.355C80.5997 103.355 82.6329 104.578 83.8302 105.468C85.502 106.713 87.5126 108.07 89.4102 109.249C90.4946 109.938 91.8501 110.828 92.4148 111.25C92.9796 111.651 93.5218 112.007 93.6347 112.007C93.7477 112.029 94.1995 112.296 94.6513 112.629C95.1032 112.985 95.7131 113.408 96.0294 113.586C96.3457 113.764 96.933 114.12 97.3397 114.364C98.1755 114.854 102.129 117.433 107.619 121.103C109.584 122.415 111.73 123.839 112.385 124.261C113.537 124.995 115.028 125.974 120.767 129.733C122.145 130.645 123.771 131.734 124.381 132.157C125.014 132.602 125.917 133.224 126.414 133.536C126.911 133.847 128.448 134.826 129.803 135.715C131.181 136.583 133.011 137.762 133.869 138.318C138.794 141.431 142.544 143.967 145.685 146.324C148.011 148.037 148.621 148.304 149.073 147.77C149.389 147.392 149.638 136.738 149.683 122.482C149.683 116.055 149.796 102.443 149.886 92.2123C150.067 75.5762 150.045 73.4633 149.728 72.0844C149.525 71.2392 149.322 69.9937 149.254 69.282C149.118 68.0143 148.057 65.2787 146.927 63.366C144.532 59.2737 141.505 56.6048 132.198 50.4218C130.639 49.3765 128.335 47.8196 127.092 46.9745C125.85 46.1293 123.523 44.5502 121.896 43.4827C111.821 36.7659 109.878 35.4537 109.471 35.1201C109.223 34.9199 108.048 34.1193 106.873 33.3408C105.698 32.5624 104.478 31.695 104.162 31.4281C102.739 30.1604 101.383 29.6711 100.819 30.2271ZM111.866 45.7957C112.905 46.5741 117.084 49.3765 121.105 52.0454C125.149 54.692 128.832 57.1385 129.306 57.4944C129.78 57.828 131.339 58.8956 132.808 59.8742C134.253 60.8528 135.677 61.8536 135.948 62.0982C136.219 62.3429 136.851 62.8767 137.371 63.2992C138.817 64.5002 140.285 66.9245 141.144 69.5044L141.889 71.7952L141.844 87.8976C141.799 100.219 141.709 104.067 141.505 104.267C141.144 104.623 140.534 104.356 138.501 102.999C133.531 99.7075 127.815 95.9043 123.636 93.1242C120.993 91.3449 118.282 89.5434 117.604 89.1209C116.068 88.1423 112.905 86.0071 111.73 85.1397C111.233 84.7617 110.442 84.2724 109.991 84.0055C109.516 83.7608 109.042 83.3605 108.906 83.1381C108.567 82.4708 108.59 45.0395 108.951 44.6837C109.426 44.2166 109.9 44.3945 111.866 45.7957ZM42.082 77.3332C43.7311 78.4453 45.7417 79.8019 46.555 80.3802C47.3683 80.9362 49.2885 82.2707 50.8473 83.316C52.4061 84.3613 54.236 85.5846 54.9137 86.0516C55.5914 86.5187 57.6246 87.8531 59.4319 89.0319C61.2392 90.2107 62.9561 91.3449 63.2724 91.5451C66.0737 93.4578 69.4849 95.7264 69.9593 95.971C70.2756 96.149 70.7048 96.5715 70.9307 96.9274C71.2922 97.5279 71.3148 98.7734 71.2922 115.966C71.2696 130.2 71.2018 134.492 70.9985 134.893C70.6597 135.449 69.8012 135.56 69.372 135.048C69.2138 134.87 69.0105 134.715 68.8976 134.715C68.7168 134.715 64.8763 132.135 64.6278 131.823C64.5601 131.757 63.7016 131.178 62.7076 130.556C61.7136 129.911 60.81 129.31 60.6744 129.221C60.5615 129.11 58.1216 127.486 55.2526 125.618C50.2373 122.304 48.0912 120.859 46.7809 119.924C46.442 119.68 45.8773 119.279 45.5158 119.057C42.579 117.1 40.2295 114.275 38.9644 111.139L38.106 109.026V92.5459C38.0834 78.8901 38.1285 75.9988 38.3996 75.7096C38.5578 75.4872 38.7837 75.3315 38.8966 75.3315C38.987 75.3315 40.4328 76.2434 42.082 77.3332Z" fill="white"/>
</svg>
